<?xml version="1.0" encoding="UTF-8" standalone="no"?>
<svg
   xmlns:dc="http://purl.org/dc/elements/1.1/"
   xmlns:cc="http://creativecommons.org/ns#"
   xmlns:rdf="http://www.w3.org/1999/02/22-rdf-syntax-ns#"
   xmlns:svg="http://www.w3.org/2000/svg"
   xmlns="http://www.w3.org/2000/svg"
   xmlns:sodipodi="http://sodipodi.sourceforge.net/DTD/sodipodi-0.dtd"
   xmlns:inkscape="http://www.inkscape.org/namespaces/inkscape"
   width="223"
   height="60"
   viewBox="0 0 223 60"
   fill="none"
   version="1.1"
   id="svg90"
   sodipodi:docname="nav-logo.svg"
   inkscape:version="0.92.4 (5da689c313, 2019-01-14)">
  <metadata
     id="metadata96">
    <rdf:RDF>
      <cc:Work
         rdf:about="">
        <dc:format>image/svg+xml</dc:format>
        <dc:type
           rdf:resource="http://purl.org/dc/dcmitype/StillImage" />
      </cc:Work>
    </rdf:RDF>
  </metadata>
  <defs
     id="defs94" />
  <sodipodi:namedview
     pagecolor="#ffffff"
     bordercolor="#666666"
     borderopacity="1"
     objecttolerance="10"
     gridtolerance="10"
     guidetolerance="10"
     inkscape:pageopacity="0"
     inkscape:pageshadow="2"
     inkscape:window-width="1920"
     inkscape:window-height="974"
     id="namedview92"
     showgrid="false"
     inkscape:zoom="2.2869955"
     inkscape:cx="95.289745"
     inkscape:cy="50.129073"
     inkscape:window-x="-11"
     inkscape:window-y="-11"
     inkscape:window-maximized="1"
     inkscape:current-layer="svg90" />
  <path
     d="M29.7683 0.0758057C30.1564 0.10006 30.5687 0.0272963 30.884 0.294098C31.9755 0.997483 32.121 2.74382 31.2236 3.64124C30.3747 4.4659 28.8952 4.36888 28.119 3.51997C27.6097 3.01062 27.6824 2.25873 27.7309 1.60385C27.7795 0.973228 28.2888 0.46388 28.8224 0.172824C29.1135 0.051551 29.453 0.10006 29.7683 0.0758057Z"
     fill="#FFFBFF"
     id="path2"
     style="fill:#ffffff;fill-opacity:1" />
  <path
     d="M23.656 2.23444C24.1896 2.06466 24.7474 2.01615 25.3053 2.0404C25.4023 2.40422 25.2568 2.84081 24.8444 2.86506C22.3705 3.22888 19.945 3.95652 17.6893 5.04798C17.4953 5.12074 17.2285 5.29053 17.0587 5.09649C16.7919 4.95096 16.7676 4.49012 17.1072 4.3931C19.1931 3.39866 21.376 2.64677 23.656 2.23444Z"
     fill="#FFFBFF"
     id="path4"
     style="fill:#ffffff;fill-opacity:1" />
  <path
     d="M34.3039 2.30713C34.6435 2.33138 34.9831 2.33138 35.3226 2.40415C37.6026 2.9135 39.8097 3.73815 41.8956 4.7811C42.0897 4.90238 42.2837 5.07216 42.4535 5.21769C42.2352 5.48449 41.9441 5.75129 41.5803 5.55725C39.7855 4.68409 37.9179 3.90794 35.9775 3.39859C35.2984 3.22881 34.5707 3.1803 33.9644 2.76797C34.0614 2.64669 34.2312 2.40415 34.3039 2.30713Z"
     fill="#FFFBFF"
     id="path6"
     style="fill:#ffffff;fill-opacity:1" />
  <path
     d="M12.6442 5.31473C13.202 5.21771 13.8569 5.19345 14.3663 5.50877C14.9969 5.82408 15.3364 6.50321 15.482 7.15808C15.579 8.12827 14.8999 9.0742 14.0267 9.43802C13.5173 9.48653 13.008 9.51079 12.5229 9.38951C11.9165 9.02569 11.2374 8.46783 11.2859 7.69168C11.2859 7.23085 11.2132 6.69724 11.48 6.28491C11.7225 5.84833 12.1591 5.50877 12.6442 5.31473Z"
     fill="#FFFBFF"
     id="path8"
     style="fill:#ffffff;fill-opacity:1" />
  <path
     d="M45.8247 5.31477C47.0131 5.12073 48.3714 6.18794 48.2501 7.44918C48.3229 8.17682 47.8863 8.85595 47.3042 9.26828C46.8676 9.60785 46.2855 9.48657 45.7762 9.51083C45 9.55934 44.4421 8.88021 44.1026 8.27384C43.957 7.59471 43.9085 6.7943 44.3936 6.23645C44.7089 5.7271 45.2668 5.4603 45.8247 5.31477Z"
     fill="#FFFBFF"
     id="path10"
     style="fill:#ffffff;fill-opacity:1" />
  <path
     d="M24.3836 8.90449C25.184 7.76452 25.9116 6.6003 26.6878 5.46033C27.1244 5.5816 27.4882 5.8484 27.8278 6.13946C27.0274 7.47346 26.1057 8.71045 25.2568 10.0202C25.0627 10.3113 24.9172 10.6266 24.7717 10.9419C25.0627 11.0874 25.4508 11.1359 25.6691 11.3785C25.7419 11.718 25.5721 12.0819 25.4993 12.4214C24.9415 12.4457 24.3836 12.2516 23.85 12.0576C23.6074 12.4699 23.3406 12.8823 23.0738 13.2946C22.6373 13.1248 22.2734 12.8337 21.9581 12.4942C22.1764 12.2031 22.3705 11.8878 22.4917 11.524C20.9152 10.9176 19.3144 10.3113 17.7136 9.7534C17.0829 9.60788 17.5195 8.83173 17.5923 8.4194C18.4412 8.4194 19.1446 8.88023 19.9207 9.12278C21.0607 9.51086 22.1522 9.99595 23.2921 10.384C23.753 9.99595 24.0198 9.41384 24.3836 8.90449Z"
     fill="#FFFBFF"
     id="path12"
     style="fill:#ffffff;fill-opacity:1" />
  <path
     d="M32.4366 5.58154C32.7276 5.36325 32.9459 5.72706 33.0915 5.9211C33.6978 6.84278 34.2799 7.78871 34.9106 8.68613C35.3229 9.24399 35.6139 9.87461 36.099 10.4082C36.2446 10.384 36.4144 10.3355 36.5599 10.2869C38.2577 9.63207 39.9313 9.00144 41.6534 8.39508C41.9687 8.7589 42.1627 9.19548 42.1142 9.68057C41.3138 9.89887 40.5376 10.2384 39.7372 10.5052C38.7913 10.8205 37.8939 11.3056 36.8994 11.4754C37.045 11.8877 37.239 12.2516 37.4816 12.5911C37.142 12.8822 36.8024 13.149 36.4386 13.3915C36.1476 12.9792 35.8807 12.5184 35.5169 12.1303C35.0318 12.2031 34.5953 12.4456 34.1344 12.5911C33.9646 12.2273 33.7949 11.8392 33.6493 11.4512C33.9646 11.2814 34.2799 11.1116 34.6195 10.9661C34.5225 10.578 34.3285 10.2142 34.1102 9.87461C33.334 8.73464 32.5579 7.57042 31.806 6.4062C31.5392 5.99387 32.1455 5.77557 32.4366 5.58154Z"
     fill="#FFFBFF"
     id="path14"
     style="fill:#ffffff;fill-opacity:1" />
  <path
     d="M7.4539 11.8878C8.08452 11.1117 8.7394 10.3598 9.53981 9.75342C9.68533 9.9232 9.85512 10.093 10.0249 10.2628C9.61257 10.7721 9.12748 11.2087 8.69089 11.718C7.38114 13.2703 6.14415 14.8954 5.19822 16.6903C5.05269 16.8843 4.97993 17.2239 4.68888 17.1511C4.44633 17.1996 4.32506 16.9328 4.15527 16.8115C5.1012 15.0894 6.16841 13.4159 7.4539 11.8878Z"
     fill="#FFFBFF"
     id="path16"
     style="fill:#ffffff;fill-opacity:1" />
  <path
     d="M43.1325 10.7236C43.4721 10.9662 43.8117 11.2087 44.127 11.4513C43.6904 12.2274 43.2053 12.9551 42.5989 13.6099C42.2836 13.3674 41.9926 13.1006 41.6772 12.858C42.0653 12.1061 42.5747 11.3785 43.1325 10.7236Z"
     fill="#FFFBFF"
     id="path18"
     style="fill:#ffffff;fill-opacity:1" />
  <path
     d="M31.7566 14.1192C31.6838 14.483 31.5141 14.7984 31.223 15.0409C30.6894 15.6715 29.8162 15.6715 29.0643 15.5745C28.4337 15.3562 27.9244 14.7984 27.6818 14.1435C27.5848 13.9009 27.5605 13.6341 27.5605 13.3673C27.5848 13.149 27.6333 12.9307 27.7303 12.7125C27.9486 12.1061 28.5065 11.6938 29.0886 11.4512C30.1315 11.1116 31.3443 11.718 31.7323 12.7367C31.7566 12.9307 31.7809 13.1248 31.8051 13.3188C31.8294 13.6099 31.8051 13.8524 31.7566 14.1192Z"
     fill="#FFFBFF"
     id="path20"
     style="fill:#ffffff;fill-opacity:1" />
  <path
     d="M12.9596 11.815C13.3477 11.815 13.7358 11.815 14.0996 11.7907C14.3421 12.8822 14.1723 13.9979 14.2451 15.0893C14.1966 15.914 14.3421 16.7144 14.4149 17.5391C14.803 17.4178 15.191 17.2965 15.5791 17.1995C15.7731 17.5876 15.9187 18.0242 15.9187 18.4607C15.4578 18.582 14.997 18.7275 14.5119 18.8488C14.4876 19.3824 14.4876 19.916 14.4876 20.4496C14.0753 20.4496 13.663 20.4496 13.2507 20.4496C13.2264 20.0373 13.2264 19.625 13.2021 19.2126C11.3345 19.7462 9.44268 20.2798 7.55081 20.7892C7.4538 20.3769 7.38103 19.9645 7.33252 19.5279C7.64783 19.3824 7.96314 19.2611 8.30271 19.2126C9.66097 18.9701 10.9465 18.3637 12.3047 18.1697C12.5958 18.1212 13.0081 17.9757 12.9839 17.6118C12.9839 15.6715 12.9111 13.7553 12.9596 11.815Z"
     fill="#FFFBFF"
     id="path22"
     style="fill:#ffffff;fill-opacity:1" />
  <path
     d="M19.8478 18.8973C19.4355 18.8488 19.0717 18.7032 18.7321 18.4607C18.5138 18.2909 18.344 18.0969 18.1985 17.8786C17.9802 17.5633 17.8347 17.1752 17.8347 16.7871C17.7619 15.7199 18.5623 14.6527 19.6295 14.5072C20.1631 14.4102 20.721 14.5314 21.2061 14.774C21.4486 14.8953 21.6184 15.0893 21.7882 15.2833C21.9337 15.5016 22.055 15.7199 22.152 15.9867C22.2005 16.108 22.249 16.2535 22.2733 16.3748C22.4188 17.6845 21.2061 19.0428 19.8478 18.8973Z"
     fill="#FFFBFF"
     id="path24"
     style="fill:#ffffff;fill-opacity:1" />
  <path
     d="M41.3136 17.6361C41.1923 17.8787 41.0468 18.097 40.8528 18.2667C40.7315 18.388 40.586 18.485 40.4162 18.582C39.3732 19.2127 37.8937 18.6791 37.4328 17.5391C37.1175 17.0055 37.1661 16.3991 37.4086 15.8655C37.5056 15.623 37.6754 15.4047 37.8452 15.2106C38.0877 14.9681 38.3788 14.7741 38.6698 14.6528C39.4217 14.5315 40.2949 14.5315 40.8285 15.1379C41.6046 15.7442 41.7017 16.8115 41.3136 17.6361Z"
     fill="#FFFBFF"
     id="path26"
     style="fill:#ffffff;fill-opacity:1" />
  <path
     d="M2.60297 19.237C3.40337 19.0187 4.3008 19.3097 4.81014 19.9646C5.34375 20.5224 5.17396 21.3471 5.14971 22.0505C4.93141 22.6569 4.42207 23.142 3.8157 23.3602C3.18508 23.3845 2.4817 23.5058 1.94809 23.1177C1.29322 22.6083 0.856636 21.7837 1.00216 20.959C1.24471 20.1829 1.77831 19.431 2.60297 19.237Z"
     fill="#FFFBFF"
     id="path28"
     style="fill:#ffffff;fill-opacity:1" />
  <path
     d="M16.1856 25.0096C16.1856 26.1496 15.0699 27.0713 13.9542 27.0228C13.8087 27.0228 13.6632 26.9985 13.5176 26.95C13.4206 26.9257 13.2993 26.8772 13.2023 26.8287C12.6687 26.5862 12.1836 26.1253 12.0138 25.5432C11.9896 24.9126 11.8441 24.2092 12.2564 23.6756C12.5232 23.2875 12.9113 22.9965 13.3478 22.8267C13.7359 22.8024 14.1725 22.7297 14.5848 22.8024C14.7789 22.851 14.9487 22.8995 15.1184 23.0207C15.1912 23.0692 15.2397 23.0935 15.2882 23.142C15.8461 23.5786 16.2584 24.282 16.1856 25.0096Z"
     fill="#FFFBFF"
     id="path30"
     style="fill:#ffffff;fill-opacity:1" />
  <path
     d="M5.4406 25.1551C5.75591 24.9126 6.04697 24.67 6.36228 24.4275C6.65333 24.7185 6.92013 25.0096 7.16268 25.3249C8.03585 26.4891 8.98178 27.6049 9.8792 28.7691C10.243 28.5508 10.5341 28.2355 10.8009 27.9444C11.1404 28.2112 11.48 28.478 11.7711 28.7691C11.5285 29.2299 10.9222 29.5452 10.9949 30.1273C11.2132 30.5397 11.5528 30.8792 11.7711 31.2916C11.4315 31.5099 11.1162 31.7524 10.8009 31.9707C10.5098 31.6796 10.2188 31.3886 9.8792 31.146C9.0788 32.2132 8.22989 33.2319 7.40523 34.2991C7.06566 34.7357 6.70184 35.1238 6.33802 35.5119C5.99846 35.2693 5.65889 34.9783 5.39209 34.6387C6.60482 33.0864 7.89032 31.5826 9.05454 30.0061C8.76349 29.3512 8.18138 28.8661 7.76905 28.284C7.01715 27.2168 6.09547 26.2708 5.4406 25.1551Z"
     fill="#FFFBFF"
     id="path32"
     style="fill:#ffffff;fill-opacity:1" />
  <path
     d="M1.43867 25.3007C1.63271 25.4948 2.04504 25.616 1.94802 25.9556C1.89951 27.2168 1.85101 28.4781 1.82675 29.7393C1.85101 31.2916 1.92377 32.8439 1.97228 34.3962C1.82675 34.4205 1.53569 34.4205 1.39017 34.4447C1.22038 33.7656 1.26889 33.0622 1.12337 32.3588C0.905075 31.1704 1.00209 29.9576 0.977838 28.7449C0.977838 27.8475 1.22038 26.9985 1.26889 26.1011C1.26889 25.8343 1.34166 25.5675 1.43867 25.3007Z"
     fill="#FFFBFF"
     id="path34"
     style="fill:#ffffff;fill-opacity:1" />
  <path
     d="M16.161 35.4391C15.967 36.0455 15.6032 36.6276 15.0453 36.9186C14.9726 36.9672 14.8998 36.9914 14.8028 37.0157C14.633 37.0884 14.4632 37.1612 14.2934 37.1854C13.3232 37.331 12.256 36.6761 11.9892 35.7302C11.965 35.0753 11.7709 34.2749 12.3045 33.7413C12.5228 33.4987 12.7896 33.2804 13.0807 33.1349C13.299 33.0379 13.5173 32.9894 13.7598 32.9894C13.7841 32.9894 13.8083 32.9894 13.8568 32.9894C14.3177 32.9651 14.8028 32.9651 15.1909 33.2562C15.87 33.7413 16.3066 34.5902 16.161 35.4391Z"
     fill="#FFFBFF"
     id="path36"
     style="fill:#ffffff;fill-opacity:1" />
  <path
     d="M2.40905 36.4578C3.08818 36.191 3.86433 36.4093 4.4707 36.7973C5.51365 37.6463 5.56216 39.4411 4.54346 40.3143C4.2039 40.5568 3.79157 40.6781 3.40349 40.7994C2.36054 40.9206 1.26909 40.2173 1.00228 39.1986C0.97803 38.6407 0.856754 38.0101 1.19632 37.525C1.48737 37.0641 1.87545 36.6276 2.40905 36.4578Z"
     fill="#FFFBFF"
     id="path38"
     style="fill:#ffffff;fill-opacity:1" />
  <path
     d="M7.52672 39.2227C8.93349 39.3925 10.2675 39.9261 11.6258 40.2899C12.1351 40.484 12.6687 40.581 13.2266 40.5325C13.2266 40.1929 13.2266 39.8776 13.2266 39.538C13.6146 39.538 14.0027 39.538 14.415 39.538C14.415 40.0474 14.3908 40.5567 14.3908 41.0661C14.9001 41.1873 15.4095 41.3571 15.8946 41.5512C15.7976 41.8907 15.749 42.2303 15.555 42.5214C15.1184 42.5699 14.6818 42.5214 14.2695 42.4971C14.2695 44.2434 14.2695 45.9655 14.221 47.7119C14.1482 48.3182 13.3721 48.0272 12.9598 48.0757C12.9355 46.4264 12.9598 44.7528 12.984 43.1035C13.0083 42.7154 13.2508 42.109 12.7415 41.9392C10.9466 41.5027 9.17603 40.8478 7.35693 40.5082C7.35693 40.0716 7.40544 39.635 7.52672 39.2227Z"
     fill="#FFFBFF"
     id="path40"
     style="fill:#ffffff;fill-opacity:1" />
  <path
     d="M22.0312 43.6856C22.0554 43.9524 21.9584 44.195 21.8129 44.4133C21.6673 44.6316 21.449 44.8256 21.255 44.9954C21.2065 45.0196 21.158 45.0682 21.1095 45.0924C20.0665 45.8686 18.4415 45.3107 17.9564 44.1222C17.7138 43.5886 17.7381 43.0065 17.9806 42.4972C18.1019 42.2546 18.2474 42.0363 18.4172 41.8423C18.6355 41.624 18.878 41.43 19.1691 41.3087C20.0423 41.0904 21.1095 41.2359 21.6673 42.0363C22.1282 42.4487 22.0554 43.1035 22.0312 43.6856Z"
     fill="#FFFBFF"
     id="path42"
     style="fill:#ffffff;fill-opacity:1" />
  <path
     d="M41.386 44.0738C41.1192 44.6559 40.6341 45.141 40.052 45.3836C39.5669 45.4563 39.0575 45.4563 38.5724 45.3836C38.4511 45.335 38.3299 45.2623 38.2329 45.1895C38.0146 45.0197 37.7963 44.8257 37.6265 44.6317C37.5052 44.4861 37.4082 44.3406 37.3354 44.1951C36.8746 43.0551 37.578 41.6726 38.718 41.3088C39.5911 41.042 40.5613 41.43 41.0949 42.1334C41.2404 42.3032 41.3375 42.5215 41.4102 42.7398C41.4102 42.7883 41.4345 42.8611 41.4345 42.9096C41.4345 43.2734 41.4345 43.6857 41.386 44.0738Z"
     fill="#FFFBFF"
     id="path44"
     style="fill:#ffffff;fill-opacity:1" />
  <path
     d="M4.25195 42.8852C4.51875 42.7882 4.80981 42.7396 5.10087 42.7154C6.07105 44.583 7.30804 46.3051 8.69056 47.9059C9.15139 48.4637 9.73351 48.9488 10.1458 49.5552C9.92754 49.725 9.61223 50.1373 9.36969 49.7978C7.28379 47.7604 5.5617 45.4319 4.25195 42.8852Z"
     fill="#FFFBFF"
     id="path46"
     style="fill:#ffffff;fill-opacity:1" />
  <path
     d="M31.7809 46.4508C31.7809 46.7418 31.7323 47.0086 31.6353 47.2512C31.2958 48.1001 30.3983 48.755 29.4767 48.6095C28.6763 48.5124 27.9001 47.9546 27.6333 47.1784C27.6333 47.1542 27.6091 47.1542 27.6091 47.1299C27.5848 46.8874 27.5605 46.6206 27.5605 46.378C27.5605 46.184 27.5848 45.9657 27.6091 45.7717C27.8273 45.1895 28.2639 44.7287 28.7975 44.4619C29.3311 44.3649 29.889 44.3891 30.4468 44.4376C31.1745 44.8257 31.8294 45.5776 31.7809 46.4508Z"
     fill="#FFFBFF"
     id="path48"
     style="fill:#ffffff;fill-opacity:1" />
  <path
     d="M21.9338 47.2511C22.2734 47.0328 22.5887 46.8388 22.9282 46.6447C23.2921 47.0328 23.5346 47.5422 23.9469 47.8575C24.3593 47.7362 24.7716 47.5422 25.1839 47.3966C25.378 47.7362 25.572 48.0758 25.7418 48.4396C25.4507 48.7306 25.0627 48.9489 24.6503 48.9732C24.9171 49.6766 25.378 50.2587 25.7903 50.865C26.8332 52.4901 27.9732 54.0667 28.9919 55.716C29.4527 55.716 29.9136 55.716 30.3502 55.716C31.1021 54.4305 31.9752 53.242 32.7756 52.005C33.2607 51.2531 33.7701 50.5012 34.3037 49.7493C34.4735 49.5068 34.5705 49.24 34.5947 48.9489C34.1824 48.9004 33.8186 48.7306 33.5275 48.4396C33.6973 48.1 33.8671 47.7605 34.0611 47.4209C34.5462 47.5664 35.0313 47.6877 35.4679 47.906C35.7347 47.4451 36.0743 47.0328 36.4138 46.6205C36.6806 46.863 37.0687 47.0086 37.2627 47.3239C37.2627 47.7362 36.9717 48.1 36.9232 48.5123C37.5538 48.6094 38.1602 48.8762 38.7423 49.1187C39.8095 49.531 40.8767 49.8949 41.9439 50.3314C42.1622 50.7438 41.8711 51.2289 41.6771 51.5927C39.858 50.9863 38.0631 50.2829 36.2683 49.6038C36.0015 49.4583 35.856 49.8221 35.7104 49.9919C34.4007 51.9808 33.0667 53.9211 31.7812 55.91C31.9995 56.2496 32.1693 56.6619 32.5088 56.9045C33.5518 56.7104 34.5705 56.4679 35.6134 56.2981C36.2926 56.1526 36.9232 55.8615 37.578 55.6917C39.0333 55.2551 40.4401 54.6003 41.7984 53.9454C41.9681 54.1637 42.0894 54.382 42.1622 54.6488C39.5427 56.0556 36.6806 57.0015 33.7701 57.4866C33.2122 57.6321 32.6301 57.6564 32.0722 57.6806C31.854 57.6806 31.8297 57.9717 31.7812 58.1414C31.6599 58.8933 31.1748 59.5967 30.4714 59.8878C29.9621 59.9363 29.4527 59.9363 28.9434 59.8878C28.3128 59.6938 27.8277 59.1601 27.6579 58.5295C27.5124 58.2627 27.5609 57.8019 27.1971 57.7291C26.5664 57.6078 25.9358 57.7049 25.3052 57.6321C23.2193 57.2925 21.1577 56.8317 19.193 56.0556C18.4169 55.7402 17.5922 55.4977 16.9131 54.9641C17.1071 54.7458 17.2527 54.2122 17.6165 54.479C20.0177 55.5947 22.5887 56.4194 25.2324 56.7589C25.8388 56.9045 26.4694 56.9772 27.0758 56.9287C27.2456 56.6134 27.5366 56.2981 27.4881 55.91C27.4639 55.6917 27.3183 55.5462 27.2213 55.3522C25.9601 53.4846 24.7473 51.5927 23.5104 49.7251C23.3648 49.4583 23.0253 49.531 22.7827 49.6281C21.7155 50.0889 20.624 50.4527 19.5568 50.865C18.902 51.1076 18.2956 51.3987 17.6165 51.5442C17.4467 51.1319 17.2769 50.7195 17.2527 50.2829C18.0045 50.0404 18.7079 49.7251 19.4598 49.5068C20.43 49.1915 21.3517 48.6821 22.3461 48.4881C22.3219 48.0758 22.1036 47.6877 21.9338 47.2511Z"
     fill="#FFFBFF"
     id="path50"
     style="fill:#ffffff;fill-opacity:1" />
  <path
     d="M41.4346 47.2754C41.7499 47.0328 42.0409 46.7175 42.4533 46.6205C43.1081 47.1783 43.5447 47.9545 43.9813 48.6821C43.6417 48.9004 43.3264 49.143 42.9869 49.3613C42.3563 48.7549 41.8954 48.003 41.4346 47.2754Z"
     fill="#FFFBFF"
     id="path52"
     style="fill:#ffffff;fill-opacity:1" />
  <path
     d="M12.7173 50.38C13.3237 50.1617 13.9786 50.38 14.5122 50.7195C15.1428 51.1076 15.4339 51.8595 15.3611 52.5871C15.4824 53.8241 14.2211 54.8428 13.0326 54.7216C12.0867 54.5518 11.2378 53.7999 11.0438 52.8539C10.8497 51.7625 11.6501 50.671 12.7173 50.38Z"
     fill="#FFFBFF"
     id="path54"
     style="fill:#ffffff;fill-opacity:1" />
  <path
     d="M45.2429 50.5982C45.7765 50.5012 46.3344 50.5012 46.868 50.574C47.6927 50.9863 48.3475 51.908 48.202 52.8539C48.008 54.0424 46.7467 55.0368 45.534 54.6973C44.7821 54.4062 43.9089 53.7756 44.006 52.8782C44.0545 52.4173 43.8847 51.8352 44.2242 51.4714C44.5153 51.1076 44.8306 50.7923 45.2429 50.5982Z"
     fill="#FFFBFF"
     id="path56"
     style="fill:#ffffff;fill-opacity:1" />
  <path
     d="M41.3863 42.6912C41.3135 42.473 41.2165 42.2789 41.071 42.0849C40.028 43.0551 38.8638 43.904 37.6025 44.5831C35.832 45.5533 33.8673 46.1839 31.7814 46.4265C31.1751 46.4992 30.5444 46.5477 29.8896 46.5477C29.0892 46.5477 28.313 46.4992 27.5369 46.378C25.4752 46.0869 23.5348 45.3835 21.8128 44.3891C20.5758 43.6857 19.4358 42.8125 18.4171 41.7938C17.0103 40.3871 15.8461 38.7377 15.0215 36.8701C14.4636 35.6331 14.0755 34.3234 13.833 32.9409C13.6875 32.0677 13.6147 31.146 13.6147 30.2243C13.6147 29.1086 13.736 28.0172 13.9543 26.95C14.2211 25.5917 14.6819 24.3062 15.264 23.0935C16.1372 21.3229 17.3257 19.7221 18.7324 18.3881C19.7511 17.4179 20.8911 16.5932 22.1281 15.9141C23.8259 14.9924 25.6935 14.3618 27.6824 14.095C28.41 13.998 29.1377 13.9495 29.8896 13.9495C30.5202 13.9495 31.1508 13.9737 31.7572 14.0465C33.7703 14.2648 35.6864 14.8711 37.4085 15.7928C38.6698 16.4477 39.8097 17.2481 40.8527 18.2183C41.0467 18.0485 41.1922 17.806 41.3135 17.5877C40.2706 16.6417 39.1063 15.8171 37.8451 15.1622C36.0017 14.192 33.9643 13.5371 31.7814 13.2946C31.1508 13.2218 30.5202 13.1976 29.8653 13.1976C29.0649 13.1976 28.2888 13.2461 27.5369 13.3674C25.4752 13.6584 23.5106 14.3133 21.74 15.2592C20.4303 15.9626 19.2418 16.8358 18.1746 17.8545C16.6708 19.2612 15.4338 20.9348 14.5364 22.8024C13.93 24.0637 13.4449 25.3977 13.1539 26.8044C12.9113 27.9202 12.79 29.0844 12.79 30.2729C12.79 31.243 12.8628 32.2132 13.0326 33.1349C13.2751 34.5417 13.6875 35.8999 14.2453 37.1612C15.1427 39.1743 16.404 40.9692 17.932 42.473C18.9022 43.4189 20.0179 44.2678 21.1821 44.9712C23.0983 46.1112 25.2569 46.8631 27.5369 47.1784C28.2888 47.2754 29.0407 47.3239 29.8168 47.3239C30.3989 47.3239 30.981 47.2996 31.5631 47.2269C33.9158 46.9843 36.1473 46.2567 38.1362 45.141C39.3004 44.4861 40.3676 43.7099 41.3378 42.8368C41.4105 42.8125 41.3863 42.7398 41.3863 42.6912Z"
     fill="#FFFBFF"
     id="path58"
     style="fill:#ffffff;fill-opacity:1" />
  <g
     aria-label="Chaingateway.io"
     style="font-style:normal;font-variant:normal;font-weight:600;font-stretch:normal;font-size:26.66666603px;line-height:1.25;font-family:Dosis;-inkscape-font-specification:'Dosis Semi-Bold';letter-spacing:0px;word-spacing:0px;fill:#ffffff;fill-opacity:1;stroke:none"
     id="text905">
    <path
       d="m 55.127452,37.860001 q -1.6,0 -2.96,-0.586667 -1.333333,-0.586667 -2.133333,-1.893333 -0.8,-1.306667 -0.8,-3.466667 v -7.76 q 0,-2.16 0.8,-3.466666 0.8,-1.306667 2.16,-1.893333 1.36,-0.586667 2.96,-0.586667 1.84,0 3.173333,0.64 1.36,0.613333 2.106667,1.706667 0.773333,1.066666 0.773333,2.479999 0,0.906667 -0.346667,1.2 -0.346666,0.266667 -1.066666,0.266667 -0.64,0 -1.013334,-0.213333 -0.373333,-0.24 -0.4,-0.72 -0.02667,-0.346667 -0.133333,-0.826667 -0.106667,-0.48 -0.426667,-0.933333 -0.293333,-0.48 -0.906666,-0.773334 -0.613334,-0.319999 -1.68,-0.319999 -1.546667,0 -2.373333,0.853333 -0.826667,0.826666 -0.826667,2.586666 v 7.76 q 0,1.76 0.826667,2.613334 0.853333,0.826666 2.453333,0.826666 1.013333,0 1.6,-0.293333 0.613333,-0.32 0.906666,-0.773333 0.293334,-0.48 0.4,-0.986667 0.106667,-0.533333 0.16,-0.96 0.02667,-0.506667 0.4,-0.72 0.4,-0.213333 0.986667,-0.213333 0.746667,0 1.093333,0.293333 0.346667,0.293333 0.346667,1.173333 0,1.44 -0.773333,2.586667 -0.746667,1.12 -2.106667,1.76 -1.36,0.64 -3.2,0.64 z"
       style="fill:#ffffff;fill-opacity:1"
       id="path900" />
    <path
       d="m 64.967869,37.700001 q -0.613334,0 -1.013334,-0.293334 -0.373333,-0.293333 -0.373333,-0.64 V 18.446668 q 0,-0.4 0.373333,-0.64 0.4,-0.266667 1.013334,-0.266667 0.586666,0 0.986666,0.266667 0.426667,0.24 0.426667,0.64 v 8.48 q 0.4,-0.773334 1.253333,-1.386667 0.88,-0.64 2.16,-0.64 1.253333,0 2.293333,0.72 1.066667,0.693333 1.706667,1.893333 0.64,1.173334 0.64,2.64 v 6.613333 q 0,0.453334 -0.453333,0.693334 -0.426667,0.24 -0.96,0.24 -0.48,0 -0.933334,-0.24 -0.453333,-0.24 -0.453333,-0.693334 v -6.613333 q 0,-0.693333 -0.373333,-1.333333 -0.373334,-0.64 -0.986667,-1.04 -0.586666,-0.4 -1.333333,-0.4 -0.64,0 -1.226667,0.346667 -0.586666,0.32 -0.96,0.933333 -0.373333,0.613333 -0.373333,1.493333 v 6.613333 q 0,0.346667 -0.426667,0.64 -0.4,0.293334 -0.986666,0.293334 z"
       style="fill:#ffffff;fill-opacity:1"
       id="path902" />
    <path
       d="m 79.999119,37.913334 q -1.466667,0 -2.506667,-0.853333 -1.04,-0.88 -1.04,-2.666667 0,-1.52 0.8,-2.346666 0.8,-0.826667 2.186667,-1.146667 1.413333,-0.32 3.253333,-0.32 h 1.173333 v -0.48 q 0,-0.693333 -0.266666,-1.333333 -0.24,-0.666667 -0.826667,-1.093334 -0.56,-0.453333 -1.546666,-0.453333 -0.986667,0 -1.52,0.186667 -0.533334,0.186666 -0.853334,0.4 -0.32,0.213333 -0.586666,0.213333 -0.48,0 -0.746667,-0.453333 -0.266667,-0.48 -0.266667,-0.96 0,-0.48 0.613334,-0.853334 0.64,-0.4 1.573333,-0.613333 0.933333,-0.24 1.84,-0.24 1.973333,0 3.146666,0.746667 1.173334,0.72 1.706667,1.893333 0.533333,1.173333 0.533333,2.533333 v 6.693333 q 0,0.373334 -0.4,0.666667 -0.373333,0.266667 -0.96,0.266667 -0.533333,0 -0.906666,-0.266667 -0.373334,-0.293333 -0.373334,-0.666667 v -0.933333 q -0.693333,0.8 -1.679999,1.44 -0.986667,0.64 -2.346667,0.64 z m 1.013333,-2.133333 q 0.666667,0 1.306667,-0.4 0.666667,-0.4 1.093333,-1.013333 0.453333,-0.613334 0.453333,-1.253334 v -0.986666 h -0.666666 q -1.013333,0 -1.92,0.133333 -0.906667,0.106667 -1.466667,0.533333 -0.533333,0.4 -0.533333,1.253334 0,0.906666 0.48,1.333333 0.506667,0.4 1.253333,0.4 z"
       style="fill:#ffffff;fill-opacity:1"
       id="path904" />
    <path
       d="m 90.878701,21.886668 q -0.666667,0 -1.146667,-0.453334 -0.48,-0.453333 -0.48,-1.013333 0,-0.613333 0.48,-1.04 0.48,-0.426666 1.146667,-0.426666 0.666667,0 1.12,0.426666 0.48,0.426667 0.48,1.04 0,0.56 -0.48,1.013333 -0.453333,0.453334 -1.12,0.453334 z m 0,15.813333 q -0.613333,0 -1.013333,-0.293334 -0.373334,-0.293333 -0.373334,-0.64 V 25.966668 q 0,-0.4 0.373334,-0.64 0.4,-0.266667 1.013333,-0.266667 0.586667,0 0.986667,0.266667 0.426666,0.24 0.426666,0.64 v 10.799999 q 0,0.346667 -0.426666,0.64 -0.4,0.293334 -0.986667,0.293334 z"
       style="fill:#ffffff;fill-opacity:1"
       id="path906" />
    <path
       d="m 96.607869,37.700001 q -0.613333,0 -1.013333,-0.293334 -0.373334,-0.293333 -0.373334,-0.64 V 25.966668 q 0,-0.4 0.373334,-0.64 0.4,-0.266667 1.013333,-0.266667 0.506667,0 0.88,0.266667 0.373333,0.24 0.373333,0.64 v 0.96 q 0.4,-0.773334 1.306667,-1.386667 0.933331,-0.64 2.266671,-0.64 1.25333,0 2.29333,0.72 1.06667,0.693333 1.70667,1.893333 0.64,1.173334 0.64,2.64 v 6.613333 q 0,0.453334 -0.45334,0.693334 -0.42666,0.24 -0.96,0.24 -0.48,0 -0.93333,-0.24 -0.45333,-0.24 -0.45333,-0.693334 v -6.613333 q 0,-0.693333 -0.37334,-1.333333 -0.34666,-0.64 -0.96,-1.04 -0.61333,-0.4 -1.36,-0.4 -0.639998,0 -1.226664,0.346667 -0.586667,0.32 -0.96,0.933333 -0.373334,0.613333 -0.373334,1.493333 v 6.613333 q 0,0.346667 -0.426666,0.64 -0.4,0.293334 -0.986667,0.293334 z"
       style="fill:#ffffff;fill-opacity:1"
       id="path908" />
    <path
       d="m 113.64037,43.700001 q -1.54667,0 -2.85334,-0.453334 -1.30666,-0.426666 -2.08,-1.253333 -0.77333,-0.826667 -0.77333,-1.973333 0,-1.066667 0.61333,-1.786667 0.61334,-0.693333 1.44,-1.066667 -0.53333,-0.24 -0.88,-0.64 -0.34666,-0.4 -0.34666,-1.12 0,-0.746666 0.37333,-1.199999 0.37333,-0.453334 0.96,-0.826667 -0.74667,-0.586667 -1.17333,-1.44 -0.4,-0.88 -0.4,-1.92 v -0.746667 q 0,-1.28 0.61333,-2.266666 0.61333,-0.986667 1.73333,-1.546667 1.14667,-0.56 2.61334,-0.56 0.90666,0 1.68,0.24 0.8,0.24 1.41333,0.666667 0.42667,-0.986667 0.85333,-1.386667 0.45334,-0.4 0.85334,-0.4 0.56,0 0.85333,0.32 0.29333,0.32 0.29333,0.64 0,0.213333 -0.13333,0.4 -0.10667,0.16 -0.32,0.266667 -0.26667,0.133333 -0.64,0.373333 -0.34667,0.213333 -0.69333,0.693333 0.45333,0.506667 0.66666,1.173334 0.21334,0.666666 0.21334,1.386666 v 0.746667 q 0,1.253333 -0.64,2.266667 -0.64,1.013333 -1.78667,1.6 -1.14667,0.56 -2.61333,0.56 -1.04,0 -1.84,-0.32 -0.21334,0.133333 -0.37334,0.32 -0.13333,0.16 -0.13333,0.426666 0,0.48 0.58667,0.693333 0.58666,0.213334 1.49333,0.32 0.93333,0.106667 1.97333,0.266667 1.04,0.16 1.94667,0.533333 0.93333,0.346667 1.52,1.04 0.58667,0.72 0.58667,1.946667 0,1.386667 -0.77334,2.266667 -0.77333,0.906666 -2.05333,1.333333 -1.25333,0.426667 -2.77333,0.426667 z m -0.0533,-1.866667 q 1.30667,0 2.10667,-0.586667 0.82667,-0.56 0.82667,-1.493333 0,-0.666667 -0.4,-1.04 -0.4,-0.373333 -1.04,-0.56 -0.64,-0.186667 -1.36,-0.266667 -0.69334,-0.08 -1.33334,-0.16 -0.74666,0.266667 -1.28,0.746667 -0.50666,0.506667 -0.50666,1.253333 0,0.986667 0.82666,1.546667 0.85334,0.56 2.16,0.56 z m -0.0533,-9.173333 q 1.06667,0 1.65333,-0.746667 0.61334,-0.746666 0.61334,-1.893333 v -0.746667 q 0,-1.093333 -0.61334,-1.84 -0.58666,-0.746666 -1.68,-0.746666 -1.09333,0 -1.68,0.746666 -0.58666,0.746667 -0.58666,1.84 v 0.72 q 0,1.12 0.58666,1.893334 0.58667,0.773333 1.70667,0.773333 z"
       style="fill:#ffffff;fill-opacity:1"
       id="path910" />
    <path
       d="m 124.00953,37.913334 q -1.46666,0 -2.50666,-0.853333 -1.04,-0.88 -1.04,-2.666667 0,-1.52 0.8,-2.346666 0.8,-0.826667 2.18666,-1.146667 1.41334,-0.32 3.25334,-0.32 h 1.17333 v -0.48 q 0,-0.693333 -0.26667,-1.333333 -0.24,-0.666667 -0.82666,-1.093334 -0.56,-0.453333 -1.54667,-0.453333 -0.98667,0 -1.52,0.186667 -0.53333,0.186666 -0.85333,0.4 -0.32,0.213333 -0.58667,0.213333 -0.48,0 -0.74667,-0.453333 -0.26666,-0.48 -0.26666,-0.96 0,-0.48 0.61333,-0.853334 0.64,-0.4 1.57333,-0.613333 0.93334,-0.24 1.84,-0.24 1.97334,0 3.14667,0.746667 1.17333,0.72 1.70667,1.893333 0.53333,1.173333 0.53333,2.533333 v 6.693333 q 0,0.373334 -0.4,0.666667 -0.37333,0.266667 -0.96,0.266667 -0.53333,0 -0.90667,-0.266667 -0.37333,-0.293333 -0.37333,-0.666667 v -0.933333 q -0.69333,0.8 -1.68,1.44 -0.98667,0.64 -2.34667,0.64 z m 1.01334,-2.133333 q 0.66666,0 1.30666,-0.4 0.66667,-0.4 1.09334,-1.013333 0.45333,-0.613334 0.45333,-1.253334 v -0.986666 h -0.66667 q -1.01333,0 -1.92,0.133333 -0.90666,0.106667 -1.46666,0.533333 -0.53334,0.4 -0.53334,1.253334 0,0.906666 0.48,1.333333 0.50667,0.4 1.25334,0.4 z"
       style="fill:#ffffff;fill-opacity:1"
       id="path912" />
    <path
       d="m 138.11579,37.700001 q -2.26667,0 -3.46667,-0.986667 -1.2,-1.013333 -1.2,-3.173333 v -13.36 q 0,-0.4 0.42667,-0.64 0.45333,-0.266666 0.96,-0.266666 0.50666,0 0.96,0.266666 0.45333,0.24 0.45333,0.64 v 4.88 h 3.25333 q 0.37334,0 0.56,0.32 0.21334,0.32 0.21334,0.72 0,0.4 -0.21334,0.72 -0.18666,0.32 -0.56,0.32 h -3.25333 v 6.4 q 0,0.96 0.4,1.36 0.42667,0.4 1.46667,0.4 h 0.90666 q 0.61334,0 0.90667,0.373333 0.32,0.346667 0.32,0.826667 0,0.453333 -0.32,0.826666 -0.29333,0.373334 -0.90667,0.373334 z"
       style="fill:#ffffff;fill-opacity:1"
       id="path914" />
    <path
       d="m 147.6987,37.913334 q -1.81334,0 -3.2,-0.666667 -1.38667,-0.666666 -2.18667,-1.84 -0.8,-1.199999 -0.8,-2.799999 v -2.533334 q 0,-1.413333 0.74667,-2.586666 0.77333,-1.173334 2.02666,-1.866667 1.25334,-0.72 2.77334,-0.72 1.44,0 2.64,0.64 1.2,0.613333 1.92,1.733333 0.74666,1.12 0.74666,2.56 0,1.12 -0.34666,1.6 -0.34667,0.48 -0.90667,0.586667 -0.56,0.106667 -1.17333,0.106667 h -5.62667 v 0.613333 q 0,1.333333 0.96,2.133333 0.98667,0.773333 2.50667,0.773333 0.93333,0 1.52,-0.266666 0.58666,-0.266667 0.98666,-0.506667 0.4,-0.24 0.74667,-0.24 0.34667,0 0.58667,0.213333 0.24,0.213334 0.37333,0.506667 0.13333,0.293333 0.13333,0.533333 0,0.4 -0.56,0.88 -0.53333,0.48 -1.52,0.826667 -0.98666,0.32 -2.34666,0.32 z m -3.38667,-7.52 h 4.42667 q 0.58666,0 0.77333,-0.16 0.21333,-0.16 0.21333,-0.64 0,-0.693333 -0.34666,-1.28 -0.34667,-0.613333 -0.96,-0.933333 -0.61334,-0.346667 -1.38667,-0.346667 -0.74667,0 -1.36,0.32 -0.61333,0.32 -0.98667,0.88 -0.37333,0.56 -0.37333,1.306667 z"
       style="fill:#ffffff;fill-opacity:1"
       id="path916" />
    <path
       d="m 158.78161,37.966667 q -0.37333,0 -0.66666,-0.133333 -0.29334,-0.133333 -0.42667,-0.48 l -4.13333,-10.773333 q -0.0533,-0.133333 -0.10667,-0.24 -0.0267,-0.133333 -0.0267,-0.213333 0,-0.346667 0.29334,-0.586667 0.29333,-0.266667 0.69333,-0.426667 0.42667,-0.16 0.8,-0.16 0.29333,0 0.53333,0.133334 0.24,0.106666 0.32,0.373333 l 2.96,8.293333 2.26667,-7.36 q 0.13333,-0.4 0.4,-0.506666 0.26667,-0.106667 0.58667,-0.106667 0.34666,0 0.61333,0.106667 0.26667,0.106666 0.4,0.506666 l 2.21333,7.413334 2.98667,-8.346667 q 0.16,-0.506667 0.82667,-0.506667 0.37333,0 0.77333,0.16 0.42667,0.133334 0.72,0.4 0.29333,0.266667 0.29333,0.64 0,0.08 -0.0267,0.213334 -0.0267,0.133333 -0.08,0.213333 l -4.13334,10.826666 q -0.10666,0.32 -0.42666,0.426667 -0.29334,0.133333 -0.66667,0.133333 -0.42667,0 -0.74667,-0.133333 -0.29333,-0.133333 -0.4,-0.4 l -2.34666,-6.88 -2.29334,6.8 q -0.10666,0.32 -0.45333,0.453333 -0.32,0.16 -0.74667,0.16 z"
       style="fill:#ffffff;fill-opacity:1"
       id="path918" />
    <path
       d="m 175.57203,37.913334 q -1.46666,0 -2.50666,-0.853333 -1.04,-0.88 -1.04,-2.666667 0,-1.52 0.8,-2.346666 0.8,-0.826667 2.18666,-1.146667 1.41334,-0.32 3.25334,-0.32 h 1.17333 v -0.48 q 0,-0.693333 -0.26667,-1.333333 -0.24,-0.666667 -0.82666,-1.093334 -0.56,-0.453333 -1.54667,-0.453333 -0.98667,0 -1.52,0.186667 -0.53333,0.186666 -0.85333,0.4 -0.32,0.213333 -0.58667,0.213333 -0.48,0 -0.74667,-0.453333 -0.26666,-0.48 -0.26666,-0.96 0,-0.48 0.61333,-0.853334 0.64,-0.4 1.57333,-0.613333 0.93334,-0.24 1.84,-0.24 1.97334,0 3.14667,0.746667 1.17333,0.72 1.70667,1.893333 0.53333,1.173333 0.53333,2.533333 v 6.693333 q 0,0.373334 -0.4,0.666667 -0.37333,0.266667 -0.96,0.266667 -0.53333,0 -0.90667,-0.266667 -0.37333,-0.293333 -0.37333,-0.666667 v -0.933333 q -0.69333,0.8 -1.68,1.44 -0.98667,0.64 -2.34667,0.64 z m 1.01334,-2.133333 q 0.66666,0 1.30666,-0.4 0.66667,-0.4 1.09334,-1.013333 0.45333,-0.613334 0.45333,-1.253334 v -0.986666 h -0.66667 q -1.01333,0 -1.92,0.133333 -0.90666,0.106667 -1.46666,0.533333 -0.53334,0.4 -0.53334,1.253334 0,0.906666 0.48,1.333333 0.50667,0.4 1.25334,0.4 z"
       style="fill:#ffffff;fill-opacity:1"
       id="path920" />
    <path
       d="m 184.96204,43.700001 q -0.53334,0 -0.90667,-0.24 -0.37333,-0.213334 -0.37333,-0.96 0,-0.48 0.16,-0.853334 0.16,-0.346666 0.58666,-0.346666 0.50667,0 1.09334,-0.266667 0.61333,-0.24 1.17333,-0.8 0.58667,-0.533333 0.98667,-1.36 0.42666,-0.826667 0.58666,-1.946667 l -4.50666,-10.346666 q -0.10667,-0.186667 -0.10667,-0.373333 0,-0.346667 0.29333,-0.64 0.32,-0.32 0.74667,-0.506667 0.42667,-0.186667 0.8,-0.186667 0.26667,0 0.50667,0.133334 0.26666,0.106666 0.34666,0.373333 l 3.36,8.666667 2.90667,-8.666667 q 0.08,-0.266667 0.32,-0.373333 0.24,-0.133334 0.48,-0.133334 0.32,0 0.74667,0.186667 0.45333,0.186667 0.77333,0.506667 0.34667,0.293333 0.34667,0.693333 0,0.213333 -0.08,0.32 l -4,10.426666 q -0.42667,1.146667 -0.88,2.32 -0.45334,1.2 -1.12,2.186667 -0.64,0.986667 -1.68,1.573333 -1.01334,0.613334 -2.56,0.613334 z"
       style="fill:#ffffff;fill-opacity:1"
       id="path922" />
    <path
       d="m 197.30162,37.860001 q -0.69333,0 -1.14667,-0.48 -0.45333,-0.48 -0.45333,-1.12 0,-0.666667 0.45333,-1.12 0.45334,-0.48 1.14667,-0.48 0.64,0 1.09333,0.48 0.48,0.453333 0.48,1.12 0,0.64 -0.48,1.12 -0.45333,0.48 -1.09333,0.48 z"
       style="fill:#ffffff;fill-opacity:1"
       id="path924" />
    <path
       d="m 202.59745,21.886668 q -0.66667,0 -1.14667,-0.453334 -0.48,-0.453333 -0.48,-1.013333 0,-0.613333 0.48,-1.04 0.48,-0.426666 1.14667,-0.426666 0.66666,0 1.12,0.426666 0.48,0.426667 0.48,1.04 0,0.56 -0.48,1.013333 -0.45334,0.453334 -1.12,0.453334 z m 0,15.813333 q -0.61334,0 -1.01334,-0.293334 -0.37333,-0.293333 -0.37333,-0.64 V 25.966668 q 0,-0.4 0.37333,-0.64 0.4,-0.266667 1.01334,-0.266667 0.58666,0 0.98666,0.266667 0.42667,0.24 0.42667,0.64 v 10.799999 q 0,0.346667 -0.42667,0.64 -0.4,0.293334 -0.98666,0.293334 z"
       style="fill:#ffffff;fill-opacity:1"
       id="path926" />
    <path
       d="m 211.92662,37.913334 q -1.44,0 -2.69333,-0.746667 -1.25334,-0.746666 -2.02667,-1.946666 -0.74667,-1.226667 -0.74667,-2.613333 v -2.453334 q 0,-1.413333 0.72,-2.613333 0.74667,-1.2 2,-1.92 1.28,-0.72 2.77334,-0.72 1.49333,0 2.74666,0.72 1.25334,0.693333 2,1.893333 0.77334,1.173334 0.77334,2.64 v 2.453334 q 0,1.36 -0.77334,2.586666 -0.74666,1.226667 -2.02666,1.973333 -1.25334,0.746667 -2.74667,0.746667 z m 0.0267,-2.48 q 0.74666,0 1.36,-0.4 0.61333,-0.4 0.98666,-1.04 0.37334,-0.666666 0.37334,-1.386666 v -2.453334 q 0,-0.693333 -0.37334,-1.333333 -0.37333,-0.64 -0.98666,-1.04 -0.61334,-0.4 -1.36,-0.4 -0.77334,0 -1.38667,0.4 -0.58667,0.4 -0.96,1.04 -0.34667,0.64 -0.34667,1.333333 v 2.453334 q 0,0.72 0.34667,1.386666 0.37333,0.64 0.98667,1.04 0.61333,0.4 1.36,0.4 z"
       style="fill:#ffffff;fill-opacity:1"
       id="path928" />
  </g>
</svg>
