<?xml version="1.0" encoding="UTF-8" standalone="no"?>
<svg
   xmlns:dc="http://purl.org/dc/elements/1.1/"
   xmlns:cc="http://creativecommons.org/ns#"
   xmlns:rdf="http://www.w3.org/1999/02/22-rdf-syntax-ns#"
   xmlns:svg="http://www.w3.org/2000/svg"
   xmlns="http://www.w3.org/2000/svg"
   id="svg8"
   version="1.1"
   viewBox="0 0 157.70496 23.000004"
   height="23.000004mm"
   width="157.70496mm">
  <defs
     id="defs2" />
  <metadata
     id="metadata5">
    <rdf:RDF>
      <cc:Work
         rdf:about="">
        <dc:format>image/svg+xml</dc:format>
        <dc:type
           rdf:resource="http://purl.org/dc/dcmitype/StillImage" />
        <dc:title></dc:title>
      </cc:Work>
    </rdf:RDF>
  </metadata>
  <g
     transform="translate(-27.914998,-85.328417)"
     id="layer1">
    <path
       style="fill:#ffffff;stroke-width:0.01916723"
       d="m 47.436033,98.027134 v -1.58818 c 0,-0.21825 -0.155959,-0.39996 -0.362012,-0.44069 v -0.91516 c 0,-0.40207 -0.32592,-0.72797 -0.727971,-0.72797 h -1.088872 v -0.23068 c 0,-0.2482 -0.201025,-0.44924 -0.449241,-0.44924 h -0.430592 v -1.64478 c -1.5e-4,-3.695439 -3.006571,-6.70201 -6.701821,-6.70201 -3.695248,0 -6.701628,3.006378 -6.701628,6.70163 v 1.64478 h -0.430592 c -0.248196,0 -0.449241,0.20125 -0.449241,0.44924 v 0.23068 h -1.088872 c -0.40207,0 -0.72797,0.32591 -0.72797,0.72797 v 0.91516 c -0.206355,0.0407 -0.362223,0.22243 -0.362223,0.44069 v 1.58817 c 0,0.21826 0.155734,0.39997 0.362223,0.4407 v 1.29147 c -0.206355,0.0407 -0.362223,0.22243 -0.362223,0.440686 v 1.58818 c 0,0.21825 0.155734,0.39996 0.362223,0.44069 v 1.29147 c -0.206355,0.0407 -0.362223,0.22243 -0.362223,0.44069 v 1.58818 c 0,0.21825 0.155734,0.39996 0.362223,0.44069 v 0.96465 c 0,0.40207 0.325919,0.72797 0.72797,0.72797 h 0.598229 c 0.170632,0.38064 0.552706,0.6463 0.99685,0.6463 0.444142,0 0.826202,-0.26543 0.996849,-0.6463 h 12.157004 c 0.170408,0.38064 0.552476,0.6463 0.996849,0.6463 0.444373,0 0.826204,-0.26543 0.996849,-0.6463 h 0.598229 c 0.402071,0 0.727971,-0.32592 0.727971,-0.72797 v -0.96465 c 0.206125,-0.0407 0.362012,-0.22244 0.362012,-0.44069 l 5.3e-5,-1.58766 c 0,-0.21826 -0.155958,-0.39996 -0.362011,-0.44069 v -1.29147 c 0.206125,-0.0407 0.362011,-0.22244 0.362011,-0.44069 v -1.58818 c 0,-0.218256 -0.155958,-0.399966 -0.362011,-0.440696 v -1.29146 c 0.206125,-0.041 0.362011,-0.22275 0.362011,-0.44101 z m -8.012093,6.001446 h -3.497061 l 0.67392,-3.3144 c -0.409852,-0.32015 -0.67392,-0.818336 -0.67392,-1.378696 0,-0.96555 0.782714,-1.74849 1.748493,-1.74849 0.965549,0 1.748492,0.78271 1.748492,1.74849 0,0.56049 -0.263857,1.058686 -0.67392,1.378696 z m 2.160722,-10.353366 h -0.479104 c -0.248197,0 -0.449242,0.20126 -0.449242,0.44924 v 0.23068 h -5.961774 v -0.23068 c 0,-0.2482 -0.201256,-0.44924 -0.449242,-0.44924 h -0.479103 v -1.64478 c 0,-2.15554 1.7538,-3.909348 3.909347,-3.909348 2.155547,0 3.909348,1.753808 3.909348,3.909348 v 1.64478 z"
       id="path4607" />
  </g>
  <g
     transform="translate(-27.914998,-85.328417)"
     id="layer2">
    <text
       id="text4520"
       y="103.33453"
       x="50.8437"
       style="font-style:normal;font-variant:normal;font-weight:bold;font-stretch:normal;font-size:24.00815582px;line-height:1.25;font-family:Roboto;-inkscape-font-specification:'Roboto Bold';letter-spacing:0px;word-spacing:0px;fill:#ffffff;fill-opacity:1;stroke:none;stroke-width:0.32153779"
       xml:space="preserve"><tspan
         style="fill:#ffffff;fill-opacity:1;stroke-width:0.32153779"
         y="103.33453"
         x="50.8437"
         id="tspan4518">TotalRugged</tspan></text>
  </g>
</svg>
